<?xml version="1.0"?>
<svg xmlns="http://www.w3.org/2000/svg" xmlns:xlink="http://www.w3.org/1999/xlink" xmlns:svgjs="http://svgjs.com/svgjs" version="1.1" width="512" height="512" x="0" y="0" viewBox="0 0 74 74" style="enable-background:new 0 0 512 512" xml:space="preserve" class=""><g><path xmlns="http://www.w3.org/2000/svg" d="m25.561 49.121a23.55 23.55 0 0 1 -16.661-40.21 23.561 23.561 0 1 1 16.661 40.21zm-15.247-38.8a21.561 21.561 0 1 0 30.493 0 21.589 21.589 0 0 0 -30.493 0z" fill="#ffffff" data-original="#000000" style="" class=""/><path xmlns="http://www.w3.org/2000/svg" d="m25.561 43.246a17.675 17.675 0 1 1 12.5-5.177 17.558 17.558 0 0 1 -12.5 5.177zm0-33.35a15.675 15.675 0 1 0 11.085 4.591 15.575 15.575 0 0 0 -11.085-4.587z" fill="#ffffff" data-original="#000000" style="" class=""/><path xmlns="http://www.w3.org/2000/svg" d="m46.239 47.25a1 1 0 0 1 -.707-.293l-4.432-4.434a1 1 0 0 1 1.414-1.414l4.433 4.434a1 1 0 0 1 -.707 1.707z" fill="#ffffff" data-original="#000000" style="" class=""/><path xmlns="http://www.w3.org/2000/svg" d="m64.6 72.007a7.383 7.383 0 0 1 -5.236-2.165l-18.364-18.357a1 1 0 0 1 0-1.414l9.058-9.057a1 1 0 0 1 1.414 0l18.359 18.357a7.4 7.4 0 0 1 -5.231 12.636zm-21.476-21.229 17.65 17.65a5.4 5.4 0 0 0 7.643-7.643l-17.649-17.65z" fill="#ffffff" data-original="#000000" style="" class=""/><path xmlns="http://www.w3.org/2000/svg" d="m46.149 56.217a1 1 0 0 1 -.707-1.707l9.058-9.057a1 1 0 1 1 1.414 1.414l-9.057 9.057a1 1 0 0 1 -.708.293z" fill="#ffffff" data-original="#000000" style="" class=""/></g></svg>
